<svg xmlns="http://www.w3.org/2000/svg" xmlns:xlink="http://www.w3.org/1999/xlink" width="256" height="256" viewBox="0 0 256 256"><defs><linearGradient id="a" x1="0.843" y1="0.135" x2="0.206" y2="0.886" gradientUnits="objectBoundingBox"><stop offset="0" stop-color="#b6509e"/><stop offset="1" stop-color="#2ebac6"/></linearGradient><clipPath id="c"><rect width="256" height="256"/></clipPath></defs><g id="b" clip-path="url(#c)"><path d="M128,256a128.976,128.976,0,0,1-25.8-2.6,127.309,127.309,0,0,1-45.77-19.261,128.366,128.366,0,0,1-46.375-56.315A127.357,127.357,0,0,1,2.6,153.8a129.251,129.251,0,0,1,0-51.593,127.31,127.31,0,0,1,19.26-45.77A128.372,128.372,0,0,1,78.177,10.059,127.33,127.33,0,0,1,102.2,2.6a129.244,129.244,0,0,1,51.593,0,127.308,127.308,0,0,1,45.77,19.26,128.367,128.367,0,0,1,46.375,56.316A127.343,127.343,0,0,1,253.4,102.2a129.248,129.248,0,0,1,0,51.593,127.3,127.3,0,0,1-19.26,45.77,128.382,128.382,0,0,1-56.316,46.375A127.4,127.4,0,0,1,153.8,253.4,128.977,128.977,0,0,1,128,256Zm0-242.287a115.145,115.145,0,0,0-23.033,2.322A113.657,113.657,0,0,0,64.1,33.232,114.622,114.622,0,0,0,22.7,83.515a113.7,113.7,0,0,0-6.659,21.452,115.4,115.4,0,0,0,0,46.065,113.66,113.66,0,0,0,17.2,40.866,114.627,114.627,0,0,0,50.282,41.407,113.75,113.75,0,0,0,21.453,6.658,115.381,115.381,0,0,0,46.065,0,113.609,113.609,0,0,0,40.866-17.2A114.622,114.622,0,0,0,233.3,172.485a113.741,113.741,0,0,0,6.659-21.453,115.4,115.4,0,0,0,0-46.065,113.662,113.662,0,0,0-17.2-40.865A114.619,114.619,0,0,0,172.485,22.7a113.74,113.74,0,0,0-21.453-6.659A115.145,115.145,0,0,0,128,13.714Z" fill="url(#a)"/><g transform="translate(226.397 -3297.041)"><g transform="translate(-196.397 3327.041)"><path d="M-90.606,3522.984h-15.92c-3.115-.525-6.234-1.028-9.346-1.575-55.714-9.788-91.695-66.007-77.372-120.888a97.976,97.976,0,0,1,114.434-71.5,97.874,97.874,0,0,1,76.866,78.688c.576,3.174,1.035,6.372,1.548,9.559v15.918c-.533,3.18-1.057,6.36-1.6,9.537-6.766,39.373-39.289,71.9-78.655,78.659C-83.966,3521.946-87.289,3522.451-90.606,3522.984ZM-137.9,3415.269c.254-2.134.445-3.884.672-5.629.767-5.935,4.21-9.483,9.968-10.62a59.881,59.881,0,0,1,10.9-1.357c21.83-.209,43.662-.23,65.493-.351a37.519,37.519,0,0,0,6.083-.472,6.729,6.729,0,0,0,5.592-4.553c2.352-7.4.76-14.029-7.685-15.79a68.781,68.781,0,0,0-13.326-1.6c-19.247-.17-38.5-.288-57.74.041a106.834,106.834,0,0,0-20.8,2.482c-15.144,3.3-22.817,11.715-24.932,27.125a176.7,176.7,0,0,0-1.157,20.322c-.176,8.353-.193,16.7,1.118,25.021,2.205,14.02,9.423,22.623,23.017,25.875a85.77,85.77,0,0,0,18.521,2.611c21.621.31,43.25.216,64.874.024a44.362,44.362,0,0,0,11.794-2.013,10.879,10.879,0,0,0,7.334-12.208c-.968-5.653-4.213-8.222-10.487-8.286-1.7-.019-3.4,0-5.1-.005-20.879-.082-41.759-.075-62.637-.322a69.171,69.171,0,0,1-12.073-1.719,9.805,9.805,0,0,1-6.758-4.541c-2.32-3.808-2.289-8.094-2.637-12.564H-135q42.442,0,84.883-.014a30.13,30.13,0,0,0,4.673-.306c3.223-.508,6.033-1.943,6.744-5.34a27.317,27.317,0,0,0,.45-8.472c-.424-3.839-3.049-6.11-6.761-6.984a16.986,16.986,0,0,0-3.841-.341q-43.053-.028-86.106-.013Z" transform="translate(196.397 -3327.041)" fill="#7866d4"/></g></g></g></svg>