<svg height="256" viewBox="0 0 256 256" width="256" xmlns="http://www.w3.org/2000/svg" xmlns:xlink="http://www.w3.org/1999/xlink"><linearGradient id="a" gradientUnits="objectBoundingBox" x1=".843" x2=".206" y1=".135" y2=".886"><stop offset="0" stop-color="#b6509e"/><stop offset="1" stop-color="#2ebac6"/></linearGradient><clipPath id="b"><path d="m0 0h256v256h-256z"/></clipPath><g clip-path="url(#b)"><path d="m128 256a128.976 128.976 0 0 1 -25.8-2.6 127.309 127.309 0 0 1 -45.77-19.261 128.366 128.366 0 0 1 -46.375-56.315 127.357 127.357 0 0 1 -7.455-24.024 129.251 129.251 0 0 1 0-51.593 127.31 127.31 0 0 1 19.26-45.77 128.372 128.372 0 0 1 56.317-46.378 127.33 127.33 0 0 1 24.023-7.459 129.244 129.244 0 0 1 51.593 0 127.308 127.308 0 0 1 45.77 19.26 128.367 128.367 0 0 1 46.375 56.316 127.343 127.343 0 0 1 7.462 24.024 129.248 129.248 0 0 1 0 51.593 127.3 127.3 0 0 1 -19.26 45.77 128.382 128.382 0 0 1 -56.316 46.375 127.4 127.4 0 0 1 -24.024 7.462 128.977 128.977 0 0 1 -25.8 2.6zm0-242.287a115.145 115.145 0 0 0 -23.033 2.322 113.657 113.657 0 0 0 -40.867 17.197 114.622 114.622 0 0 0 -41.4 50.283 113.7 113.7 0 0 0 -6.659 21.452 115.4 115.4 0 0 0 0 46.065 113.66 113.66 0 0 0 17.2 40.866 114.627 114.627 0 0 0 50.282 41.407 113.75 113.75 0 0 0 21.453 6.658 115.381 115.381 0 0 0 46.065 0 113.609 113.609 0 0 0 40.866-17.2 114.622 114.622 0 0 0 41.393-50.278 113.741 113.741 0 0 0 6.659-21.453 115.4 115.4 0 0 0 0-46.065 113.662 113.662 0 0 0 -17.2-40.865 114.619 114.619 0 0 0 -50.274-41.402 113.74 113.74 0 0 0 -21.453-6.659 115.145 115.145 0 0 0 -23.032-2.327z" fill="url(#a)"/><path d="m155.4 72.338v48.6l60.063-84.638z" fill="#3b3735" transform="translate(-24.501 105.35)"/><path d="m213.279 111.9-57.879-96.1v69.892z" fill="#3b3735" transform="translate(-24.501 13.914)"/><path d="m155.4 29.6v59.517l57.333-33.308z" fill="#1f1d19" transform="translate(-24.501 75.449)"/><path d="m143.8 111.9 57.879-96.1v69.892z" fill="#959190" transform="translate(-76.244 13.914)"/><path d="m201.233 29.6v59.517l-57.333-33.308z" fill="#403c3a" transform="translate(-75.803 75.449)"/><path d="m203.463 72.338v48.6l-60.063-84.638z" fill="#959190" transform="translate(-78.029 105.35)"/></g></svg>