<svg height="256" viewBox="0 0 256 256" width="256" xmlns="http://www.w3.org/2000/svg" xmlns:xlink="http://www.w3.org/1999/xlink"><linearGradient id="a" gradientUnits="objectBoundingBox" x1=".843" x2=".206" y1=".135" y2=".886"><stop offset="0" stop-color="#b6509e"/><stop offset="1" stop-color="#2ebac6"/></linearGradient><clipPath id="b"><path d="m0 0h256v256h-256z"/></clipPath><g clip-path="url(#b)"><path d="m128 256a128.976 128.976 0 0 1 -25.8-2.6 127.309 127.309 0 0 1 -45.77-19.261 128.366 128.366 0 0 1 -46.375-56.315 127.357 127.357 0 0 1 -7.455-24.024 129.251 129.251 0 0 1 0-51.593 127.31 127.31 0 0 1 19.26-45.77 128.372 128.372 0 0 1 56.317-46.378 127.33 127.33 0 0 1 24.023-7.459 129.244 129.244 0 0 1 51.593 0 127.308 127.308 0 0 1 45.77 19.26 128.367 128.367 0 0 1 46.375 56.316 127.343 127.343 0 0 1 7.462 24.024 129.248 129.248 0 0 1 0 51.593 127.3 127.3 0 0 1 -19.26 45.77 128.382 128.382 0 0 1 -56.316 46.375 127.4 127.4 0 0 1 -24.024 7.462 128.977 128.977 0 0 1 -25.8 2.6zm0-242.287a115.145 115.145 0 0 0 -23.033 2.322 113.657 113.657 0 0 0 -40.867 17.197 114.622 114.622 0 0 0 -41.4 50.283 113.7 113.7 0 0 0 -6.659 21.452 115.4 115.4 0 0 0 0 46.065 113.66 113.66 0 0 0 17.2 40.866 114.627 114.627 0 0 0 50.282 41.407 113.75 113.75 0 0 0 21.453 6.658 115.381 115.381 0 0 0 46.065 0 113.609 113.609 0 0 0 40.866-17.2 114.622 114.622 0 0 0 41.393-50.278 113.741 113.741 0 0 0 6.659-21.453 115.4 115.4 0 0 0 0-46.065 113.662 113.662 0 0 0 -17.2-40.865 114.619 114.619 0 0 0 -50.274-41.402 113.74 113.74 0 0 0 -21.453-6.659 115.145 115.145 0 0 0 -23.032-2.327z" fill="url(#a)"/><g fill="#31cb9e"><path d="m20 61.588 73.3 41.989a3.87 3.87 0 0 0 5.864-3.343v-77.351a3.841 3.841 0 0 0 -5.864-3.313z" transform="translate(97.616 66.417)"/><path d="m93.683 37.681-50.111-36.858a3.988 3.988 0 0 0 -6.272 2.112l-18.3 82.101 74.243-41.051a3.695 3.695 0 0 0 .44-6.3" transform="translate(95.684 29.715)"/><path d="m43.513 122.3 50.17-36.858a3.753 3.753 0 0 0 -.411-6.392l-74.272-41.05 18.3 82.1a3.958 3.958 0 0 0 6.216 2.258" transform="translate(95.684 103.141)"/><path d="m39.585 94.713 19.06-89.139a3.783 3.783 0 0 0 -5.865-3.841l-48.821 37.444a10.116 10.116 0 0 0 -3.959 8.064v95a10.116 10.116 0 0 0 3.958 8.181l48.586 37.327a3.783 3.783 0 0 0 5.864-3.841z" transform="translate(58.971 31.767)"/></g></g></svg>