<svg height="256" viewBox="0 0 256 256" width="256" xmlns="http://www.w3.org/2000/svg" xmlns:xlink="http://www.w3.org/1999/xlink"><linearGradient id="a" gradientUnits="objectBoundingBox" x1=".843" x2=".206" y1=".135" y2=".886"><stop offset="0" stop-color="#b6509e"/><stop offset="1" stop-color="#2ebac6"/></linearGradient><linearGradient id="b" gradientUnits="objectBoundingBox" x1=".854" x2=".146" y1=".146" y2=".854"><stop offset="0" stop-color="#ff2d55"/><stop offset="1" stop-color="#ffbc5b"/></linearGradient><linearGradient id="c" gradientUnits="objectBoundingBox" x1=".5" x2=".5" y2="1"><stop offset="0" stop-color="#a524b3"/><stop offset="1" stop-color="#ff2d55"/></linearGradient><clipPath id="d"><path d="m0 0h256v256h-256z"/></clipPath><g clip-path="url(#d)"><path d="m128 256a128.976 128.976 0 0 1 -25.8-2.6 127.309 127.309 0 0 1 -45.77-19.261 128.366 128.366 0 0 1 -46.375-56.315 127.357 127.357 0 0 1 -7.455-24.024 129.251 129.251 0 0 1 0-51.593 127.31 127.31 0 0 1 19.26-45.77 128.372 128.372 0 0 1 56.317-46.378 127.33 127.33 0 0 1 24.023-7.459 129.244 129.244 0 0 1 51.593 0 127.308 127.308 0 0 1 45.77 19.26 128.367 128.367 0 0 1 46.375 56.316 127.343 127.343 0 0 1 7.462 24.024 129.248 129.248 0 0 1 0 51.593 127.3 127.3 0 0 1 -19.26 45.77 128.382 128.382 0 0 1 -56.316 46.375 127.4 127.4 0 0 1 -24.024 7.462 128.977 128.977 0 0 1 -25.8 2.6zm0-242.287a115.145 115.145 0 0 0 -23.033 2.322 113.657 113.657 0 0 0 -40.867 17.197 114.622 114.622 0 0 0 -41.4 50.283 113.7 113.7 0 0 0 -6.659 21.452 115.4 115.4 0 0 0 0 46.065 113.66 113.66 0 0 0 17.2 40.866 114.627 114.627 0 0 0 50.282 41.407 113.75 113.75 0 0 0 21.453 6.658 115.381 115.381 0 0 0 46.065 0 113.609 113.609 0 0 0 40.866-17.2 114.622 114.622 0 0 0 41.393-50.278 113.741 113.741 0 0 0 6.659-21.453 115.4 115.4 0 0 0 0-46.065 113.662 113.662 0 0 0 -17.2-40.865 114.619 114.619 0 0 0 -50.274-41.402 113.74 113.74 0 0 0 -21.453-6.659 115.145 115.145 0 0 0 -23.032-2.327z" fill="url(#a)"/><g transform="translate(29.714 29.714)"><circle cx="98.285" cy="98.285" fill="url(#b)" r="98.285"/><g fill-rule="evenodd"><path d="m125.7 0v73.647h61.373z" fill="url(#c)" transform="translate(-56.128 63.828)"/><path d="m16.7 203.647h61.373v-73.647z" fill="#fff" transform="translate(-8.501 -66.172)"/><path d="m40 320a100.569 100.569 0 0 0 19.639 19.639h117.836a100.569 100.569 0 0 0 19.639-19.639z" fill="#fc9965" transform="translate(-20.361 -162.886)"/><path d="m80 360a98.2 98.2 0 0 0 117.835 0z" fill="#ff2d55" transform="translate(-40.722 -183.247)"/><path d="m252.3 0v54.008h45.023z" fill="url(#c)" transform="translate(-120.57 103.106)"/><path d="m140.231 280h-123.531a97.778 97.778 0 0 0 11.44 19.639h112.14v-19.639z" fill="#ffbc5b" transform="translate(-8.501 -142.525)"/><path d="m176.7 264.008h44.974v-54.008z" fill="#fff" transform="translate(-89.944 -106.894)"/></g><circle cx="24.549" cy="24.549" fill="#ffc95b" r="24.549" transform="translate(107.181 39.278)"/><circle cx="12.275" cy="12.275" fill="#ffc95b" r="12.275" transform="translate(57.298 24.549)"/></g></g></svg>