<svg xmlns="http://www.w3.org/2000/svg" xmlns:xlink="http://www.w3.org/1999/xlink" width="256" height="256" viewBox="0 0 256 256"><defs><linearGradient id="a" x1="0.843" y1="0.135" x2="0.206" y2="0.886" gradientUnits="objectBoundingBox"><stop offset="0" stop-color="#b6509e"/><stop offset="1" stop-color="#2ebac6"/></linearGradient><clipPath id="c"><rect width="256" height="256"/></clipPath></defs><g id="b" clip-path="url(#c)"><path d="M128,256a128.976,128.976,0,0,1-25.8-2.6,127.309,127.309,0,0,1-45.77-19.261,128.366,128.366,0,0,1-46.375-56.315A127.357,127.357,0,0,1,2.6,153.8a129.251,129.251,0,0,1,0-51.593,127.31,127.31,0,0,1,19.26-45.77A128.372,128.372,0,0,1,78.177,10.059,127.33,127.33,0,0,1,102.2,2.6a129.244,129.244,0,0,1,51.593,0,127.308,127.308,0,0,1,45.77,19.26,128.367,128.367,0,0,1,46.375,56.316A127.343,127.343,0,0,1,253.4,102.2a129.248,129.248,0,0,1,0,51.593,127.3,127.3,0,0,1-19.26,45.77,128.382,128.382,0,0,1-56.316,46.375A127.4,127.4,0,0,1,153.8,253.4,128.977,128.977,0,0,1,128,256Zm0-242.287a115.145,115.145,0,0,0-23.033,2.322A113.657,113.657,0,0,0,64.1,33.232,114.622,114.622,0,0,0,22.7,83.515a113.7,113.7,0,0,0-6.659,21.452,115.4,115.4,0,0,0,0,46.065,113.66,113.66,0,0,0,17.2,40.866,114.627,114.627,0,0,0,50.282,41.407,113.75,113.75,0,0,0,21.453,6.658,115.381,115.381,0,0,0,46.065,0,113.609,113.609,0,0,0,40.866-17.2A114.622,114.622,0,0,0,233.3,172.485a113.741,113.741,0,0,0,6.659-21.453,115.4,115.4,0,0,0,0-46.065,113.662,113.662,0,0,0-17.2-40.865A114.619,114.619,0,0,0,172.485,22.7a113.74,113.74,0,0,0-21.453-6.659A115.145,115.145,0,0,0,128,13.714Z" transform="translate(0)" fill="url(#a)"/><path d="M196.571,98.285a98.285,98.285,0,1,0-98.285,98.285,98.285,98.285,0,0,0,98.285-98.285Z" transform="translate(29.714 29.714)" fill="#1e1a31" fill-rule="evenodd"/><g transform="translate(99 89)"><g transform="translate(0 0)"><g transform="translate(0)"><g transform="translate(0)"><path d="M34.548,34.967a4.835,4.835,0,0,1,0,9.669H22.171A21.859,21.859,0,0,1,.464,22.629,21.859,21.859,0,0,1,22.171.621H54.092a4.8,4.8,0,0,1,4.769,4.835,4.8,4.8,0,0,1-4.769,4.835H22.171a12.339,12.339,0,0,0,0,24.677Z" transform="translate(-0.464 -0.621)" fill="#fff" fill-rule="evenodd"/><path d="M34.085,34.346a4.835,4.835,0,0,1,0,9.669H21.707A21.859,21.859,0,0,1,0,22.008,21.859,21.859,0,0,1,21.707,0H53.628A4.8,4.8,0,0,1,58.4,4.835a4.8,4.8,0,0,1-4.769,4.835H21.707a12.339,12.339,0,0,0,0,24.677Z" transform="translate(58.397 78.361) rotate(180)" fill="#fff" fill-rule="evenodd"/><path d="M8.456,75.789.7,70.157,49.463,1.167,57.215,6.8Z" transform="translate(0.081 0.622)" fill="rgba(255,255,255,0.5)" fill-rule="evenodd"/></g></g></g></g></g></svg>