<?xml version="1.0" encoding="UTF-8"?>
<svg width="1347px" height="450px" viewBox="0 0 1347 450" version="1.1" xmlns="http://www.w3.org/2000/svg" xmlns:xlink="http://www.w3.org/1999/xlink">
    <title>Deflast_logo</title>
    <defs>
        <linearGradient x1="50%" y1="0%" x2="50%" y2="100%" id="linearGradient-1">
            <stop stop-color="#001C34" offset="0%"></stop>
            <stop stop-color="#0075DE" offset="100%"></stop>
        </linearGradient>
        <linearGradient x1="100%" y1="50%" x2="0%" y2="50%" id="linearGradient-2">
            <stop stop-color="#FFFFFF" offset="0%"></stop>
            <stop stop-color="#FFFFFF" offset="16.6173986%"></stop>
            <stop stop-color="#FFFFFF" stop-opacity="0" offset="91.5566934%"></stop>
            <stop stop-color="#FFFFFF" stop-opacity="0" offset="100%"></stop>
        </linearGradient>
        <linearGradient x1="100%" y1="50%" x2="0%" y2="50%" id="linearGradient-3">
            <stop stop-color="#FFFFFF" offset="0%"></stop>
            <stop stop-color="#FFFFFF" offset="28.7874789%"></stop>
            <stop stop-color="#FFFFFF" stop-opacity="0" offset="100%"></stop>
        </linearGradient>
        <linearGradient x1="100%" y1="50%" x2="0%" y2="50%" id="linearGradient-4">
            <stop stop-color="#FFFFFF" offset="0%"></stop>
            <stop stop-color="#FFFFFF" offset="41.2320524%"></stop>
            <stop stop-color="#FFFFFF" stop-opacity="0" offset="100%"></stop>
        </linearGradient>
        <linearGradient x1="100%" y1="55.7525479%" x2="-46.8731342%" y2="41.141302%" id="linearGradient-5">
            <stop stop-color="#FFFFFF" offset="0%"></stop>
            <stop stop-color="#FFFFFF" offset="18.8046775%"></stop>
            <stop stop-color="#FFFFFF" stop-opacity="0" offset="100%"></stop>
        </linearGradient>
    </defs>
    <g id="Page-1" stroke="none" stroke-width="1" fill="none" fill-rule="evenodd">
        <g id="Deflast_logo">
            <rect id="Rectangle" fill="url(#linearGradient-1)" fill-rule="nonzero" x="0" y="0" width="1347" height="450"></rect>
            <g id="Group" transform="translate(22.000000, 130.000000)">
                <polygon id="path-14" fill="#FFFFFF" fill-rule="nonzero" points="412.088421 187.850264 428.338094 109.23285 517.086306 109.23285 523.461178 78.3654354 464.478211 78.3654354 434.712965 78.3654354 443.962779 34.0171504 534.460956 34.0171504 540.960825 3.14973615 412.713408 3.14973615 374.339181 187.850264"></polygon>
                <polygon id="path-16" fill="#FFFFFF" fill-rule="nonzero" points="669.208754 187.850264 675.583626 156.98285 582.335504 156.98285 614.209862 3.14973615 576.58562 3.14973615 538.211393 187.850264"></polygon>
                <path d="M846.103654,3.14973615 L875.853055,187.850264 L840.103775,187.850264 L833.978899,147.029683 L761.355361,147.029683 L739.355804,187.850264 L700.606585,187.850264 L804.229498,3.14973615 L846.103654,3.14973615 Z M818.729206,41.9544855 L774.480097,116.288259 L829.353992,116.288259 L818.729206,41.9544855 Z" id="path-18" fill="#FFFFFF" fill-rule="nonzero"></path>
                <path d="M971.803172,191 C994.636045,191 1012.44819,185.225484 1025.2396,173.676451 C1038.031,162.127419 1044.42671,148.205585 1044.42671,131.91095 C1044.42671,118.724055 1040.13513,107.930959 1031.55197,99.5316623 C1025.80208,93.8201407 1012.38569,86.3867634 991.302779,77.2315303 C977.303061,71.100044 968.261576,66.2704485 964.178325,62.7427441 C960.095074,59.2990325 958.053449,54.9313984 958.053449,49.6398417 C958.053449,44.0123131 960.28257,39.3507036 964.740814,35.6550132 C969.199057,31.9593228 976.636408,30.1114776 987.052864,30.1114776 C997.635985,30.1114776 1005.63582,32.4632806 1011.05238,37.1668865 C1016.46894,41.8704925 1019.63554,48.6319261 1020.55219,57.4511873 L1020.55219,57.4511873 L1056.67646,55.8133245 C1055.50982,38.9307388 1049.03078,25.4078716 1037.23935,15.244723 C1025.44792,5.08157432 1008.80243,0 987.302859,0 C966.136619,0 949.970278,5.1235708 938.803836,15.3707124 C927.637395,25.617854 922.054174,38.510774 922.054174,54.0494723 C922.054174,62.9527265 923.929136,70.7220756 927.67906,77.3575198 C931.428985,83.9929639 936.574715,89.3895119 943.116249,93.5471636 C949.657784,97.7048153 960.032575,102.891381 974.240623,109.10686 C988.44867,115.322339 997.135995,119.815963 1000.3026,122.587731 C1004.80251,126.367414 1007.05246,130.987027 1007.05246,136.44657 C1007.05246,142.746042 1004.30252,148.121592 998.802628,152.573219 C993.302739,157.024846 984.386252,159.25066 972.053167,159.25066 C957.220132,159.25066 947.05367,155.974934 941.553781,149.423483 C938.137183,145.391821 936.178889,137.622471 935.678899,126.115435 L935.678899,126.115435 L899.804622,128.005277 C899.471295,140.352243 901.679584,151.271328 906.429488,160.762533 C911.179393,170.253738 919.325062,177.666117 930.866496,182.99967 C942.40793,188.333223 956.053489,191 971.803172,191 Z" id="path-20" fill="#FFFFFF" fill-rule="nonzero"></path>
                <polygon id="path-22" fill="#FFFFFF" fill-rule="nonzero" points="1139.32336 188.304301 1171.19772 34.4711878 1224.19665 34.4711878 1230.57153 3.60377358 1086.19943 3.60377358 1079.82456 34.4711878 1133.57348 34.4711878 1101.57412 188.304301"></polygon>
                <polygon id="path-12" fill="url(#linearGradient-2)" points="0 172.981133 302.350877 172.981133 298.751462 187.396227 0 187.396227"></polygon>
                <polygon id="path-9" fill="url(#linearGradient-3)" points="100.783626 140.54717 341.944444 140.54717 338.345029 154.962265 100.783626 154.962265"></polygon>
                <polygon id="path-6" fill="url(#linearGradient-4)" points="183.570175 108.113208 349.143275 108.113208 345.54386 122.528302 183.570175 122.528302"></polygon>
                <path d="M237.844583,86.490566 C245.156392,86.490566 250.57463,86.0759436 254.099297,85.2466988 C260.323708,83.7389808 265.404478,81.4020181 269.341606,78.2358104 C274.47862,74.1649721 278.743842,68.6712249 282.137272,61.754569 C285.530701,54.837913 287.227415,46.9129707 287.227415,37.9797421 C287.227415,33.8335178 286.796206,30.0171068 285.933788,26.5305092 C285.071369,23.0439115 283.84336,19.962513 282.249761,17.2863137 C280.656162,14.6101144 278.762591,12.3202678 276.569048,10.4167739 C274.375505,8.51328005 271.938236,7.03383184 269.257239,5.9784293 C266.576242,4.92302676 263.529655,4.22570723 260.117478,3.88647069 C258.392641,3.69800595 254.436765,3.60377358 248.24985,3.60377358 L248.24985,3.60377358 L226.0332,3.60377358 L208.766082,86.490566 L237.844583,86.490566 Z M237.113402,73.1472625 L228.507966,73.1472625 L240.094371,17.2863137 L249.93719,17.2863137 C254.924219,17.2863137 258.392641,17.6255502 260.342457,18.3040233 C263.117194,19.2840399 265.451349,21.2534964 267.34492,24.2123929 C269.238491,27.1712893 270.185276,31.5907874 270.185276,37.4708873 C270.185276,44.3686967 269.041634,50.3618755 266.754351,55.4504234 C264.467067,60.5389714 261.654833,64.6098098 258.317648,67.6629386 C255.992868,69.7737436 253.433735,71.2154989 250.640249,71.9882043 C247.846763,72.7609098 243.337814,73.1472625 237.113402,73.1472625 L237.113402,73.1472625 Z M356.79084,86.490566 L359.715564,72.6384077 L315.338508,72.6384077 L320.513019,50.1357178 L363.202734,50.1357178 L366.071213,36.2835594 L323.381498,36.2835594 L327.318626,17.4559319 L371.470702,17.4559319 L374.339181,3.60377358 L313.20121,3.60377358 L295.990337,86.490566 L356.79084,86.490566 Z" id="path-3" fill="url(#linearGradient-5)" fill-rule="nonzero"></path>
            </g>
        </g>
    </g>
</svg>