<?xml version="1.0" encoding="utf-8"?>
<!-- Generator: Adobe Illustrator 22.1.0, SVG Export Plug-In . SVG Version: 6.00 Build 0)  -->
<svg version="1.1" id="圖層_1" xmlns="http://www.w3.org/2000/svg" xmlns:xlink="http://www.w3.org/1999/xlink" x="0px" y="0px"
	 viewBox="0 0 363.9 46.7" style="enable-background:new 0 0 363.9 46.7;" xml:space="preserve">
<style type="text/css">
	.st0{display:none;}
	.st1{display:inline;fill:white;}
	.st2{fill:white;}
</style>
<g id="圖層_2_1_" class="st0">
	<rect x="-18.9" y="-20.2" class="st1" width="400.2" height="78.3"/>
</g>
<g id="圖層_1_1_">
	<g>
		<path class="st2" d="M226.3,13.6v-1.5l0,0c0-0.4-0.2-0.7-0.5-0.9l-1.3-0.7l-1,1.5l1,1.7L226.3,13.6z"/>
		
			<rect x="191.2" y="13.7" transform="matrix(0.4968 -0.8678 0.8678 0.4968 83.3885 174.5216)" class="st2" width="2" height="3.2"/>
		
			<rect x="207.2" y="20.7" transform="matrix(0.8642 -0.5032 0.5032 0.8642 17.4529 108.0171)" class="st2" width="3.2" height="2"/>
		<rect x="196.8" y="17" transform="matrix(0.4969 -0.8678 0.8678 0.4969 83.3669 180.9641)" class="st2" width="2" height="3.2"/>
		
			<rect x="202.3" y="20.1" transform="matrix(0.4969 -0.8678 0.8678 0.4969 83.4522 187.3905)" class="st2" width="2" height="3.2"/>
		
			<rect x="212.7" y="17.5" transform="matrix(0.8642 -0.5032 0.5032 0.8642 19.8064 110.3583)" class="st2" width="3.2" height="2"/>
		
			<rect x="218.3" y="14.3" transform="matrix(0.8641 -0.5033 0.5033 0.8641 22.2094 112.7581)" class="st2" width="3.2" height="2"/>
		<rect x="199.7" y="2.9" transform="matrix(0.8643 -0.5029 0.5029 0.8643 25.3411 101.6712)" class="st2" width="2.8" height="2"/>
		<rect x="195" y="5.6" transform="matrix(0.8643 -0.503 0.503 0.8643 23.3279 99.7021)" class="st2" width="2.8" height="2"/>
		<rect x="190.2" y="8.4" transform="matrix(0.8643 -0.5029 0.5029 0.8643 21.2855 97.626)" class="st2" width="2.8" height="2"/>
		<path class="st2" d="M206,2.2l0.8,0.5l1-1.7l-1.3-0.7c-0.3-0.2-0.7-0.2-1,0L204.2,1l1,1.7L206,2.2z"/>
		
			<rect x="219.5" y="7.9" transform="matrix(0.4968 -0.8679 0.8679 0.4968 102.8484 196.0518)" class="st2" width="2" height="2.8"/>
		
			<rect x="214.6" y="5.2" transform="matrix(0.4967 -0.8679 0.8679 0.4967 102.8047 190.4668)" class="st2" width="2" height="2.8"/>
		<rect x="209.9" y="2.4" transform="matrix(0.4967 -0.8679 0.8679 0.4967 102.857 184.9744)" class="st2" width="2" height="2.8"/>
		
			<rect x="224.4" y="27.4" transform="matrix(1 -3.906190e-03 3.906190e-03 1 -0.1106 0.8808)" class="st2" width="2" height="2.8"/>
		
			<rect x="224.4" y="21.9" transform="matrix(1 -3.906190e-03 3.906190e-03 1 -8.913524e-02 0.8807)" class="st2" width="2" height="2.8"/>
		
			<rect x="224.3" y="16.4" transform="matrix(1 -3.906190e-03 3.906190e-03 1 -6.765309e-02 0.8803)" class="st2" width="2" height="2.8"/>
		<path class="st2" d="M224.4,32.9v0.9l-0.8,0.5l1,1.7l1.3-0.8c0.3-0.2,0.5-0.5,0.5-0.9v-1.5L224.4,32.9z"/>
		
			<rect x="219.1" y="36.3" transform="matrix(0.8641 -0.5033 0.5033 0.8641 11.2151 116.0671)" class="st2" width="2.8" height="2"/>
		<rect x="214.4" y="39" transform="matrix(0.8641 -0.5033 0.5033 0.8641 9.217 114.0458)" class="st2" width="2.8" height="2"/>
		<rect x="209.6" y="41.8" transform="matrix(0.8641 -0.5033 0.5033 0.8641 7.1531 112.0196)" class="st2" width="2.8" height="2"/>
		<path class="st2" d="M205.3,44.1l-0.9,1.6l1.3,0.7l0,0c0.2,0.1,0.3,0.1,0.5,0.1s0.3,0,0.5-0.1l1.3-0.8l-0.9-1.6L205.3,44.1z"/>
		
			<rect x="205.1" y="38.8" transform="matrix(1 -3.698404e-03 3.698404e-03 1 -0.1471 0.7626)" class="st2" width="2" height="2.8"/>
		
			<rect x="205.1" y="29.1" transform="matrix(1 -3.741369e-03 3.741369e-03 1 -0.1125 0.7714)" class="st2" width="2" height="2.8"/>
		
			<rect x="205.1" y="24.2" transform="matrix(1 -3.741535e-03 3.741535e-03 1 -9.418829e-02 0.7714)" class="st2" width="2" height="2.8"/>
		
			<rect x="205.1" y="33.9" transform="matrix(1 -3.743026e-03 3.743026e-03 1 -0.1305 0.7718)" class="st2" width="2" height="2.8"/>
		<rect x="190.8" y="35.9" transform="matrix(0.497 -0.8678 0.8678 0.497 64.078 185.1663)" class="st2" width="2" height="2.8"/>
		
			<rect x="200.3" y="41.5" transform="matrix(0.4972 -0.8676 0.8676 0.4972 64.0146 196.1929)" class="st2" width="2" height="2.8"/>
		
			<rect x="195.5" y="38.6" transform="matrix(0.4972 -0.8676 0.8676 0.4972 64.0695 190.6067)" class="st2" width="2" height="2.8"/>
		<path class="st2" d="M187.8,33.1h-2v1.5c0,0.4,0.2,0.7,0.5,0.9l1.3,0.7l1-1.7l-0.8-0.5V33.1z"/>
		
			<rect x="185.7" y="16.5" transform="matrix(1 -3.906190e-03 3.906190e-03 1 -6.833812e-02 0.7295)" class="st2" width="2" height="2.8"/>
		
			<rect x="185.7" y="22" transform="matrix(1 -3.906190e-03 3.906190e-03 1 -8.982256e-02 0.7296)" class="st2" width="2" height="2.8"/>
		<rect x="185.8" y="27.5" transform="matrix(1 -3.906190e-03 3.906190e-03 1 -0.1113 0.73)" class="st2" width="2" height="2.8"/>
		<path class="st2" d="M187.7,13.5l0.6-1l0.2-0.1l-1-1.7l-1.3,0.8c-0.3,0.2-0.5,0.5-0.5,0.9l0,0l0,0l0,0v1.5h2V13.5z"/>
		<path class="st2" d="M363.8,12.1c0-0.4-0.2-0.7-0.5-0.9l0,0l-19.4-11c-0.3-0.2-0.7-0.2-1,0l-19.2,11.2l0,0
			c-0.3,0.2-0.5,0.5-0.5,0.9l0,0l0,0l0.1,22.3c0,0.4,0.2,0.7,0.5,0.9l19.3,11.1l0,0c0.2,0.1,0.3,0.1,0.5,0.1s0.3,0,0.5-0.1
			l19.3-11.2c0.3-0.2,0.5-0.5,0.5-0.9L363.8,12.1z M325.2,34l-0.1-20l17.3,9.9l0.1,20L325.2,34z M343.5,22.2l-17.3-9.9l17.3-10
			l17.3,9.9L343.5,22.2z M344.6,43.9l-0.1-20l17.3-10l0.1,20L344.6,43.9z"/>
		<polygon class="st2" points="0,43.7 5.4,43.7 5.4,24.7 22.4,24.7 22.4,20.1 5.4,20.1 5.4,7.2 23.6,7.2 23.6,2.7 0,2.7 		"/>
		<path class="st2" d="M56.4,28.1c0,7.7-3.6,11.6-10.9,11.6c-3.6,0-6.3-1-8.1-2.9s-2.7-4.9-2.7-8.9V2.7h-5.4v25.2
			c0,10.9,5.4,16.4,16.1,16.4c2.9,0,5.4-0.4,7.5-1.2s3.8-1.9,5.1-3.4c1.3-1.5,2.2-3.2,2.8-5.2c0.6-2,0.9-4.2,0.9-6.7V2.7h-5.3V28.1z
			"/>
		<path class="st2" d="M94,26c-0.9-1.2-2.1-2.1-3.6-2.5c2.7-0.6,4.7-1.7,6-3.4c1.3-1.7,2-3.9,2-6.4c0-1.7-0.2-3.3-0.7-4.6
			S96.6,6.8,95.8,6S94,4.6,92.7,4.1c-1.2-0.5-2.5-0.8-3.8-1s-2.8-0.3-4.5-0.3H71.2v41h5.4V25.5h7.3c1.5,0,2.7,0.2,3.6,0.6
			c0.9,0.4,1.6,1,2.1,1.8s1.1,2.1,1.8,3.8l4.5,12h5.7l-4.8-12.4C95.8,29,94.9,27.2,94,26z M84.2,20.9h-7.6V7.2h7.9h0.1h0.1h0.1
			c1.1,0,2.1,0.1,2.9,0.2c0.8,0.1,1.6,0.4,2.2,0.7c0.7,0.3,1.2,0.7,1.6,1.2s0.7,1.1,0.9,1.9c0.2,0.8,0.3,1.7,0.3,2.7
			c0,2.5-0.8,4.3-2.3,5.4C89,20.4,86.9,20.9,84.2,20.9z"/>
		<path class="st2" d="M134.5,28.1c0,7.7-3.6,11.6-10.9,11.6c-3.6,0-6.3-1-8.1-2.9c-1.8-1.9-2.7-4.9-2.7-8.9V2.7h-5.4v25.2
			c0,10.9,5.4,16.4,16.1,16.4c2.9,0,5.4-0.4,7.5-1.2s3.8-1.9,5.1-3.4s2.2-3.2,2.8-5.2s0.9-4.2,0.9-6.7V2.7h-5.3L134.5,28.1
			L134.5,28.1z"/>
		<path class="st2" d="M167,39.8c-4.4,0-7.9-1.5-10.6-4.4c-2.7-2.9-4.1-6.9-4.1-11.9c0-3.2,0.6-6.1,1.8-8.6c1.2-2.6,2.9-4.6,5.2-6.1
			c2.2-1.5,4.8-2.2,7.8-2.2c3.9,0,7.3,1.1,10.4,3.3l2.1-3.7c-3.4-2.8-7.7-4.2-12.9-4.2c-2.8,0-5.4,0.5-7.9,1.5
			c-2.4,1-4.6,2.5-6.3,4.3c-1.8,1.8-3.2,4.1-4.2,6.8s-1.5,5.7-1.5,8.8c0,3.3,0.5,6.3,1.6,8.9c1.1,2.7,2.6,4.8,4.4,6.5
			c1.9,1.7,4,3,6.4,3.9s5,1.4,7.7,1.4c5.2,0,9.7-1.4,13.6-4.3l-1.8-4.3C175,38.4,171.1,39.8,167,39.8z"/>
		<path class="st2" d="M264.5,17.1c-3.8,8.5-6.6,15.1-8.6,19.6c-1.9-4.5-4.8-11-8.5-19.6c-3.8-8.5-5.9-13.4-6.3-14.4h-6.5v41h5.2
			V11.2l2.1,5.1l12.2,27.4h3.9c0.7-1.5,2.8-6.2,6.3-14.1c3.5-7.8,6.2-13.9,8-18.1v32.2h5.1v-41H271C270.5,3.8,268.3,8.6,264.5,17.1z
			"/>
		<path class="st2" d="M308,21.8c2.2-0.6,3.9-1.7,5-3.3c1.1-1.6,1.7-3.5,1.7-5.8c0-1.2-0.2-2.3-0.5-3.3s-0.8-1.8-1.4-2.5
			s-1.3-1.3-2.1-1.8c-0.9-0.5-1.7-0.9-2.6-1.2s-1.9-0.5-3.1-0.7c-1.1-0.2-2.2-0.3-3.3-0.4c-1-0.1-2.2-0.1-3.4-0.1h-10.8v41H302
			c4.7,0,8.3-1.1,10.8-3.3s3.8-5,3.8-8.4c0-2.7-0.8-5-2.3-6.8C312.9,23.4,310.7,22.3,308,21.8z M292.9,7.2h6.2
			c3.3,0,5.8,0.4,7.5,1.3c1.7,0.9,2.5,2.5,2.5,4.8c0,4.5-3,6.7-9.1,6.7h-7.1V7.2z M308.5,37.2c-1.7,1.2-4.1,1.9-7.3,1.9h-8.3V24.5
			h7.5c3.8,0,6.5,0.5,8.1,1.6s2.4,3,2.4,5.8C311,34.2,310.2,36,308.5,37.2z"/>
	</g>
</g>
</svg>
