<svg width="1509" height="325" viewBox="0 0 1509 325" fill="none" xmlns="http://www.w3.org/2000/svg">
<rect width="320" height="320" rx="160" fill="url(#paint0_linear)"/>
<mask id="mask0" mask-type="alpha" maskUnits="userSpaceOnUse" x="0" y="0" width="320" height="320">
<rect width="320" height="320" rx="160" fill="white"/>
</mask>
<g mask="url(#mask0)">
</g>
<path fill-rule="evenodd" clip-rule="evenodd" d="M81.0367 108.574L226.803 107.855L191.904 160.486L274.266 160.087L239.361 211.835L92.6504 212.775L128.1 160.513L46.0247 160.482L81.0367 108.574Z" fill="white"/>
<path d="M376.75 239H516.75V203H425.75L513.75 96.5V62H380V96.5H466.5L376.75 203V239ZM614.971 239H649.471V177.25C649.471 136.75 637.721 114.5 593.971 114.5C574.221 114.5 554.221 121 540.471 134L560.471 154.5C568.471 145.5 578.721 140 590.971 140C603.971 140 614.971 148.5 614.971 161.75C583.721 161.75 532.721 162.5 532.721 204.5C532.721 229 553.221 242 575.971 242C591.221 242 606.221 236.75 614.471 223.75H614.971V239ZM614.971 185.75V193.75C614.971 208.75 601.221 216.5 586.471 216.5C578.221 216.5 568.721 212.25 568.721 203.25C568.721 186.75 594.221 185.75 605.721 185.75H614.971ZM676.498 296H713.998V226H714.498C722.998 237.75 737.498 242 752.998 242C787.498 242 808.498 211 808.498 177.25C808.498 140.5 784.748 114.5 748.748 114.5C731.748 114.5 717.248 124.75 711.498 133.5H710.998V117.5H676.498V296ZM710.998 178.25C710.998 160 722.248 147.5 740.998 147.5C759.748 147.5 770.998 160 770.998 178.25C770.998 196.5 759.748 209 740.998 209C722.248 209 710.998 196.5 710.998 178.25ZM833.969 296H871.469V226H871.969C880.469 237.75 894.969 242 910.469 242C944.969 242 965.969 211 965.969 177.25C965.969 140.5 942.219 114.5 906.219 114.5C889.219 114.5 874.719 124.75 868.969 133.5H868.469V117.5H833.969V296ZM868.469 178.25C868.469 160 879.719 147.5 898.469 147.5C917.219 147.5 928.469 160 928.469 178.25C928.469 196.5 917.219 209 898.469 209C879.719 209 868.469 196.5 868.469 178.25ZM1076.69 198.75C1070.44 207.25 1062.19 213.5 1049.94 213.5C1035.44 213.5 1024.69 204.25 1021.69 190H1108.69V178.25C1108.69 139.5 1086.69 114.5 1051.69 114.5C1014.19 114.5 984.189 139.5 984.189 178.25C984.189 217 1014.19 242 1051.69 242C1071.19 242 1090.94 233.25 1102.94 218L1076.69 198.75ZM1021.69 164.5C1022.69 152.75 1031.69 141.5 1048.19 141.5C1061.69 141.5 1071.44 152 1071.19 164.5H1021.69ZM1131.49 239H1168.99V188.25C1168.99 164 1172.49 147.5 1200.99 147.5C1206.49 147.5 1211.74 148.5 1216.99 150V115.75C1213.49 114.75 1208.74 114.5 1204.49 114.5C1187.99 114.5 1177.49 122.25 1169.49 137H1168.99V117.5H1131.49V239ZM1211.1 217.5C1211.1 230.25 1221.35 240.5 1234.1 240.5C1246.85 240.5 1257.1 230.25 1257.1 217.5C1257.1 204.75 1246.85 194.5 1234.1 194.5C1221.35 194.5 1211.1 204.75 1211.1 217.5ZM1290.58 239H1329.58V170H1403.33V134H1329.58V98H1409.33V62H1290.58V239ZM1433.02 239H1470.52V117.5H1433.02V239ZM1430.02 79.25C1430.02 91.25 1439.77 101 1451.77 101C1463.77 101 1473.52 91.25 1473.52 79.25C1473.52 67.25 1463.77 57.5 1451.77 57.5C1439.77 57.5 1430.02 67.25 1430.02 79.25Z" fill="black"/>
<defs>
<linearGradient id="paint0_linear" x1="160" y1="-160" x2="-160" y2="160" gradientUnits="userSpaceOnUse">
<stop stop-color="#4F3EFF"/>
<stop offset="1" stop-color="#A160FE"/>
</linearGradient>
</defs>
</svg>
